<svg width="150" height="150" viewBox="0 0 150 150" fill="none" xmlns="http://www.w3.org/2000/svg">
<g clip-path="url(#clip0)">
<path d="M41.0273 95H33.4863V68C33.4863 67.4727 33.3809 66.9805 33.1699 66.5234C32.9766 66.0664 32.7041 65.6709 32.3525 65.3369C32.0186 64.9854 31.623 64.7129 31.166 64.5195C30.709 64.3262 30.2168 64.2295 29.6895 64.2295C29.1621 64.2295 28.6699 64.3262 28.2129 64.5195C27.7559 64.7129 27.3516 64.9854 27 65.3369C26.666 65.6709 26.4023 66.0664 26.209 66.5234C26.0156 66.9805 25.9189 67.4727 25.9189 68V95H18.3516V68C18.3516 67.4727 18.2549 66.9805 18.0615 66.5234C17.8682 66.0664 17.5957 65.6709 17.2441 65.3369C16.9102 64.9854 16.5146 64.7129 16.0576 64.5195C15.6006 64.3262 15.1084 64.2295 14.5811 64.2295C14.0537 64.2295 13.5615 64.3262 13.1045 64.5195C12.6475 64.7129 12.2432 64.9854 11.8916 65.3369C11.5576 65.6709 11.2939 66.0664 11.1006 66.5234C10.9072 66.9805 10.8105 67.4727 10.8105 68V95H3.24316V68C3.24316 66.4355 3.5332 64.9678 4.11328 63.5967C4.71094 62.208 5.51953 61.0039 6.53906 59.9844C7.57617 58.9473 8.78027 58.1387 10.1514 57.5586C11.54 56.9609 13.0166 56.6621 14.5811 56.6621C15.9873 56.6621 17.3408 56.917 18.6416 57.4268C19.9424 57.9189 21.1113 58.6396 22.1484 59.5889C23.1855 58.6396 24.3457 57.9189 25.6289 57.4268C26.9297 56.917 28.2832 56.6621 29.6895 56.6621C31.2539 56.6621 32.7217 56.9609 34.0928 57.5586C35.4814 58.1387 36.6855 58.9473 37.7051 59.9844C38.7422 61.0039 39.5508 62.208 40.1309 63.5967C40.7285 64.9678 41.0273 66.4355 41.0273 68V95ZM73.7227 95H47.8037V57.1895H73.7227V64.7568H55.3711V72.3242H67.79V79.8916H55.3711V87.4326H73.7227V95ZM109.266 95H101.171L86.5898 70.1094V95H79.0225V57.1895H87.1172L101.698 82.1064V57.1895H109.266V95ZM146.127 79.8916C146.127 81.9834 145.731 83.9521 144.94 85.7979C144.149 87.626 143.068 89.2256 141.697 90.5967C140.326 91.9502 138.718 93.0225 136.872 93.8135C135.044 94.6045 133.084 95 130.992 95C128.9 95 126.932 94.6045 125.086 93.8135C123.258 93.0225 121.658 91.9502 120.287 90.5967C118.934 89.2256 117.861 87.626 117.07 85.7979C116.279 83.9521 115.884 81.9834 115.884 79.8916V57.1895H123.425V79.8916C123.425 80.9287 123.618 81.9043 124.005 82.8184C124.409 83.7324 124.954 84.5322 125.64 85.2178C126.325 85.9033 127.125 86.4482 128.039 86.8525C128.971 87.2393 129.955 87.4326 130.992 87.4326C132.029 87.4326 133.005 87.2393 133.919 86.8525C134.851 86.4482 135.659 85.9033 136.345 85.2178C137.03 84.5322 137.566 83.7324 137.953 82.8184C138.357 81.9043 138.56 80.9287 138.56 79.8916V57.1895H146.127V79.8916Z" fill="#5CFF8A"/>
</g>
<defs>
<clipPath id="clip0">
<rect width="150" height="150" fill="white"/>
</clipPath>
</defs>
</svg>
